<svg xmlns="http://www.w3.org/2000/svg" width="38" height="48"><g fill="#001c49" data-name="Grupo 13"><path d="M37.593 7.439 30.646.412A1.382 1.382 0 0 0 29.663 0H8.337a1.382 1.382 0 0 0-.983.412L.407 7.439A1.414 1.414 0 0 0 0 8.433v19.615a14.7 14.7 0 0 0 1.771 6.99A14.506 14.506 0 0 0 6.649 40.3l11.6 7.475a1.377 1.377 0 0 0 1.494 0l11.6-7.475a14.5 14.5 0 0 0 4.878-5.266A14.7 14.7 0 0 0 38 28.048V8.433a1.414 1.414 0 0 0-.407-.994Z"/><path d="m29.291 20.192-3.832 4.212.65 5.683a1.413 1.413 0 0 1-.564 1.3 1.377 1.377 0 0 1-1.4.141l-5.15-2.382-5.146 2.384a1.377 1.377 0 0 1-1.4-.141 1.413 1.413 0 0 1-.564-1.3l.65-5.683-3.827-4.214a1.418 1.418 0 0 1-.3-1.387 1.4 1.4 0 0 1 1.048-.944l5.552-1.131 2.781-4.985a1.383 1.383 0 0 1 2.422 0l2.78 4.985 5.55 1.131a1.4 1.4 0 0 1 1.048.944 1.418 1.418 0 0 1-.298 1.387Z" data-name="Path"/></g></svg>