<svg xmlns="http://www.w3.org/2000/svg" width="17.319" height="17.319" data-name="Grupo 6"><path fill="#001c49" d="M12.16 0h-7A5.165 5.165 0 0 0 0 5.159v7a5.165 5.165 0 0 0 5.159 5.159h7a5.165 5.165 0 0 0 5.159-5.159v-7A5.165 5.165 0 0 0 12.16 0Zm3.417 12.16a3.417 3.417 0 0 1-3.417 3.417h-7a3.417 3.417 0 0 1-3.418-3.417v-7a3.417 3.417 0 0 1 3.417-3.418h7a3.417 3.417 0 0 1 3.417 3.417v7Z" data-name="Caminho 61"/><path fill="#001c49" d="M8.659 4.18a4.479 4.479 0 1 0 4.479 4.479A4.484 4.484 0 0 0 8.659 4.18Zm0 7.216a2.737 2.737 0 1 1 2.737-2.737 2.737 2.737 0 0 1-2.737 2.737Z" data-name="Caminho 62"/><circle cx="1.073" cy="1.073" r="1.073" fill="#001c49" data-name="Elipse 1" transform="translate(12.074 3.141)"/></svg>