<svg xmlns="http://www.w3.org/2000/svg" width="38" height="38"><g fill="#001c49" data-name="Grupo 14"><path d="M35.625 29.688V15.437a2.375 2.375 0 0 0 1.284-4.372L20.284.377a2.374 2.374 0 0 0-2.569 0L1.091 11.065a2.375 2.375 0 0 0 1.284 4.372v14.25A2.375 2.375 0 0 0 0 32.062v3.563A2.375 2.375 0 0 0 2.375 38h33.25A2.375 2.375 0 0 0 38 35.625v-3.563a2.375 2.375 0 0 0-2.375-2.374Z"/><path d="M11.875 29.688h-4.75v-14.25h4.75v14.25ZM21.375 29.688h-4.75v-14.25h4.75ZM19 10.688a2.375 2.375 0 1 1 2.375-2.375A2.375 2.375 0 0 1 19 10.688ZM30.875 29.688h-4.75v-14.25h4.75Z" data-name="Path"/></g></svg>