<svg xmlns="http://www.w3.org/2000/svg" width="41.985" height="41.985"><g fill="#001c49"><path d="m32.609 23.359 8.883 11.788a2.46 2.46 0 1 1-3.929 2.961L28.68 26.32l.484-3.445Zm0 0" data-name="Caminho 27"/><path d="m28.68 26.32.484-3.445 11.844 15.718a2.467 2.467 0 0 1-3.445-.484Zm0 0" data-name="Caminho 28"/><path d="m24.237 20.426 3.929-2.961 4.442 5.894-3.929 2.961Zm0 0" data-name="Caminho 29"/><path d="m24.237 20.426 1.965-1.481 4.441 5.894-1.965 1.481Zm0 0" data-name="Caminho 30"/><path d="m29.196 4.523 4.294 5.7c.121 3.636-2.23 8-5.806 10.69s-8.415 3.754-11.876 2.635l-4.294-5.7c-.121-3.636 2.23-8 5.806-10.69s8.415-3.754 11.876-2.635Zm0 0" data-name="Caminho 31"/><path d="m17.32 7.158 10.364 13.753c-3.576 2.695-8.415 3.754-11.876 2.635l-4.294-5.7c-.122-3.634 2.23-7.993 5.806-10.688Zm0 0" data-name="Caminho 32"/><path d="M36.525 14.248a2.46 2.46 0 0 1-3.445-.484l-7.4-9.824A2.46 2.46 0 1 1 29.606.98l7.4 9.823a2.46 2.46 0 0 1-.481 3.445Zm0 0" data-name="Caminho 33"/><path d="M19.305 26.548a2.46 2.46 0 0 1-3.445-.484l-7.4-9.824a2.46 2.46 0 1 1 3.929-2.961l7.4 9.823a2.46 2.46 0 0 1-.484 3.446Zm0 0" data-name="Caminho 34"/><path d="M22.141 35.687v2.608a1.218 1.218 0 0 1-1.23 1.23H3.69a1.218 1.218 0 0 1-1.23-1.23v-2.608a3.528 3.528 0 0 1 3.542-3.542h12.6a3.528 3.528 0 0 1 3.539 3.542Zm0 0" data-name="Caminho 35"/><path d="M22.14 35.687v2.608a1.218 1.218 0 0 1-1.23 1.23H12.3v-7.38h6.3a3.528 3.528 0 0 1 3.54 3.542Zm0 0" data-name="Caminho 36"/><path d="M22.141 37.065H2.46A2.467 2.467 0 0 0 0 39.525v1.23a1.218 1.218 0 0 0 1.23 1.23h22.141a1.218 1.218 0 0 0 1.23-1.23v-1.23a2.467 2.467 0 0 0-2.46-2.46Zm0 0" data-name="Caminho 37"/><path d="M24.6 39.525v1.23a1.218 1.218 0 0 1-1.23 1.23H12.3v-4.92h9.84a2.467 2.467 0 0 1 2.46 2.46Zm0 0" data-name="Caminho 38"/></g></svg>