<svg xmlns="http://www.w3.org/2000/svg" width="21.501" height="21.5"><path fill="#fff" d="M18.32 18.318h-3.186v-4.987c0-1.19-.021-2.721-1.657-2.721-1.659 0-1.913 1.3-1.913 2.635v5.073H8.379V8.06h3.059v1.4h.042a3.353 3.353 0 0 1 3.02-1.656c3.229 0 3.824 2.124 3.824 4.887ZM4.784 6.657a1.849 1.849 0 1 1 1.849-1.849 1.849 1.849 0 0 1-1.849 1.849m1.592 11.661H3.187V8.06h3.189ZM19.908.001H1.586A1.569 1.569 0 0 0 0 1.551v18.4a1.57 1.57 0 0 0 1.586 1.551h18.322a1.573 1.573 0 0 0 1.592-1.553V1.55A1.573 1.573 0 0 0 19.908 0"/></svg>